<svg viewBox="0 0 32 32" xmlns="http://www.w3.org/2000/svg" aria-hidden="true" role="presentation" focusable="false" style="display: block; height: 24px; width: 24px; fill: currentcolor;"><path d="M 16 1 a 5 5 0 0 1 5 5 a 5 5 0 0 1 0 10 a 5.002 5.002 0 0 1 -4 4.9 v 4.287 C 18.652 23.224 21.153 22 23.95 22 a 8.94 8.94 0 0 1 3.737 0.814 l 0.313 0.15 l 0.002 2.328 A 6.963 6.963 0 0 0 23.95 24 c -3.542 0 -6.453 2.489 -6.93 5.869 l -0.02 0.15 l -0.006 0.098 a 1 1 0 0 1 -0.876 0.876 L 16 31 a 1 1 0 0 1 -0.974 -0.77 l -0.02 -0.124 C 14.635 26.623 11.615 24 7.972 24 a 6.963 6.963 0 0 0 -3.97 1.234 l 0.002 -2.314 c 1.218 -0.6 2.57 -0.92 3.968 -0.92 c 2.818 0 5.358 1.24 7.028 3.224 V 20.9 a 5.002 5.002 0 0 1 -3.995 -4.683 L 11 16 l -0.217 -0.005 a 5 5 0 0 1 0 -9.99 L 11 6 l 0.005 -0.217 A 5 5 0 0 1 16 1 Z m 2.864 14.1 c -0.811 0.567 -1.799 0.9 -2.864 0.9 s -2.053 -0.333 -2.864 -0.9 l -0.062 0.232 a 3 3 0 1 0 5.851 0.001 Z M 11 8 a 3 3 0 1 0 0.667 5.926 l 0.234 -0.062 A 4.977 4.977 0 0 1 11 11 c 0 -1.065 0.333 -2.053 0.9 -2.864 l -0.232 -0.062 A 3.013 3.013 0 0 0 11 8 Z m 10 0 c -0.228 0 -0.45 0.025 -0.667 0.074 l -0.234 0.062 C 20.667 8.947 21 9.935 21 11 a 4.977 4.977 0 0 1 -0.9 2.864 l 0.232 0.062 A 3 3 0 1 0 21 8 Z m -5 0 a 3 3 0 1 0 0 6 a 3 3 0 0 0 0 -6 Z m 0 -5 a 3 3 0 0 0 -2.926 3.667 l 0.062 0.234 C 13.947 6.333 14.935 6 16 6 s 2.053 0.333 2.864 0.9 l 0.062 -0.232 A 3 3 0 0 0 16 3 Z"/></svg>